<mxfile host="app.diagrams.net" agent="Mozilla/5.0 (Windows NT 10.0; Win64; x64) AppleWebKit/537.36 (KHTML, like Gecko) Chrome/134.0.0.0 Safari/537.36 Edg/134.0.0.0" version="26.1.1">
  <diagram name="Страница — 1" id="cnMyyoN5LBwZD_gOdQIV">
    <mxGraphModel grid="1" page="1" gridSize="10" guides="1" tooltips="1" connect="1" arrows="1" fold="1" pageScale="1" pageWidth="1654" pageHeight="2336" math="0" shadow="0">
      <root>
        <mxCell id="0" />
        <mxCell id="1" parent="0" />
        <object placeholders="1" c4Name="Система приемной комиссии" c4Type="Программная система" c4Description="Обработка заявок абитуриента" label="&lt;font style=&quot;font-size: 16px&quot;&gt;&lt;b&gt;%c4Name%&lt;/b&gt;&lt;/font&gt;&lt;div&gt;[%c4Type%]&lt;/div&gt;&lt;br&gt;&lt;div&gt;&lt;font style=&quot;font-size: 11px&quot;&gt;&lt;font color=&quot;#cccccc&quot;&gt;%c4Description%&lt;/font&gt;&lt;/div&gt;" id="HKrj_xFQJnSCGjJO6pi--1">
          <mxCell style="rounded=1;whiteSpace=wrap;html=1;labelBackgroundColor=none;fillColor=#1061B0;fontColor=#ffffff;align=center;arcSize=10;strokeColor=#0D5091;metaEdit=1;resizable=0;points=[[0.25,0,0],[0.5,0,0],[0.75,0,0],[1,0.25,0],[1,0.5,0],[1,0.75,0],[0.75,1,0],[0.5,1,0],[0.25,1,0],[0,0.75,0],[0,0.5,0],[0,0.25,0]];" vertex="1" parent="1">
            <mxGeometry x="740" y="530" width="240" height="120" as="geometry" />
          </mxCell>
        </object>
        <object placeholders="1" c4Name="Абитуриент" c4Type="Клиент" c4Description="Подает заявления на программы" label="&lt;font style=&quot;font-size: 16px&quot;&gt;&lt;b&gt;%c4Name%&lt;/b&gt;&lt;/font&gt;&lt;div&gt;[%c4Type%]&lt;/div&gt;&lt;br&gt;&lt;div&gt;&lt;font style=&quot;font-size: 11px&quot;&gt;&lt;font color=&quot;#cccccc&quot;&gt;%c4Description%&lt;/font&gt;&lt;/div&gt;" id="HKrj_xFQJnSCGjJO6pi--2">
          <mxCell style="html=1;fontSize=11;dashed=0;whiteSpace=wrap;fillColor=#083F75;strokeColor=#06315C;fontColor=#ffffff;shape=mxgraph.c4.person2;align=center;metaEdit=1;points=[[0.5,0,0],[1,0.5,0],[1,0.75,0],[0.75,1,0],[0.5,1,0],[0.25,1,0],[0,0.75,0],[0,0.5,0]];resizable=0;" vertex="1" parent="1">
            <mxGeometry x="280" y="160" width="200" height="180" as="geometry" />
          </mxCell>
        </object>
        <object placeholders="1" c4Name="Менеджер" c4Type="Персонал" c4Description="Работает с заявками абитуриентов, на которых назначен" label="&lt;font style=&quot;font-size: 16px&quot;&gt;&lt;b&gt;%c4Name%&lt;/b&gt;&lt;/font&gt;&lt;div&gt;[%c4Type%]&lt;/div&gt;&lt;br&gt;&lt;div&gt;&lt;font style=&quot;font-size: 11px&quot;&gt;&lt;font color=&quot;#cccccc&quot;&gt;%c4Description%&lt;/font&gt;&lt;/div&gt;" id="HKrj_xFQJnSCGjJO6pi--3">
          <mxCell style="html=1;fontSize=11;dashed=0;whiteSpace=wrap;fillColor=#083F75;strokeColor=#06315C;fontColor=#ffffff;shape=mxgraph.c4.person2;align=center;metaEdit=1;points=[[0.5,0,0],[1,0.5,0],[1,0.75,0],[0.75,1,0],[0.5,1,0],[0.25,1,0],[0,0.75,0],[0,0.5,0]];resizable=0;" vertex="1" parent="1">
            <mxGeometry x="600" y="160" width="200" height="180" as="geometry" />
          </mxCell>
        </object>
        <object placeholders="1" c4Name="Главный менеджер" c4Type="Персонал" c4Description="Назначает менеджеров на поступление" label="&lt;font style=&quot;font-size: 16px&quot;&gt;&lt;b&gt;%c4Name%&lt;/b&gt;&lt;/font&gt;&lt;div&gt;[%c4Type%]&lt;/div&gt;&lt;br&gt;&lt;div&gt;&lt;font style=&quot;font-size: 11px&quot;&gt;&lt;font color=&quot;#cccccc&quot;&gt;%c4Description%&lt;/font&gt;&lt;/div&gt;" id="HKrj_xFQJnSCGjJO6pi--4">
          <mxCell style="html=1;fontSize=11;dashed=0;whiteSpace=wrap;fillColor=#083F75;strokeColor=#06315C;fontColor=#ffffff;shape=mxgraph.c4.person2;align=center;metaEdit=1;points=[[0.5,0,0],[1,0.5,0],[1,0.75,0],[0.75,1,0],[0.5,1,0],[0.25,1,0],[0,0.75,0],[0,0.5,0]];resizable=0;" vertex="1" parent="1">
            <mxGeometry x="920" y="160" width="200" height="180" as="geometry" />
          </mxCell>
        </object>
        <object placeholders="1" c4Name="Администратор" c4Type="Персонал" c4Description="Занимается управлением и обслуживанием системы" label="&lt;font style=&quot;font-size: 16px&quot;&gt;&lt;b&gt;%c4Name%&lt;/b&gt;&lt;/font&gt;&lt;div&gt;[%c4Type%]&lt;/div&gt;&lt;br&gt;&lt;div&gt;&lt;font style=&quot;font-size: 11px&quot;&gt;&lt;font color=&quot;#cccccc&quot;&gt;%c4Description%&lt;/font&gt;&lt;/div&gt;" id="HKrj_xFQJnSCGjJO6pi--5">
          <mxCell style="html=1;fontSize=11;dashed=0;whiteSpace=wrap;fillColor=#083F75;strokeColor=#06315C;fontColor=#ffffff;shape=mxgraph.c4.person2;align=center;metaEdit=1;points=[[0.5,0,0],[1,0.5,0],[1,0.75,0],[0.75,1,0],[0.5,1,0],[0.25,1,0],[0,0.75,0],[0,0.5,0]];resizable=0;" vertex="1" parent="1">
            <mxGeometry x="1240" y="160" width="200" height="180" as="geometry" />
          </mxCell>
        </object>
        <object placeholders="1" c4Name="Система справочник" c4Type="Программная система" c4Description="Предоставляет внешние данные" label="&lt;font style=&quot;font-size: 16px&quot;&gt;&lt;b&gt;%c4Name%&lt;/b&gt;&lt;/font&gt;&lt;div&gt;[%c4Type%]&lt;/div&gt;&lt;br&gt;&lt;div&gt;&lt;font style=&quot;font-size: 11px&quot;&gt;&lt;font color=&quot;#cccccc&quot;&gt;%c4Description%&lt;/font&gt;&lt;/div&gt;" id="HKrj_xFQJnSCGjJO6pi--6">
          <mxCell style="rounded=1;whiteSpace=wrap;html=1;labelBackgroundColor=none;fillColor=#8C8496;fontColor=#ffffff;align=center;arcSize=10;strokeColor=#736782;metaEdit=1;resizable=0;points=[[0.25,0,0],[0.5,0,0],[0.75,0,0],[1,0.25,0],[1,0.5,0],[1,0.75,0],[0.75,1,0],[0.5,1,0],[0.25,1,0],[0,0.75,0],[0,0.5,0],[0,0.25,0]];" vertex="1" parent="1">
            <mxGeometry x="1200" y="760" width="240" height="120" as="geometry" />
          </mxCell>
        </object>
        <object placeholders="1" c4Name="Система уведомлений" c4Type="Программная система" c4Description="Отправляет почтовые уведомления " label="&lt;font style=&quot;font-size: 16px&quot;&gt;&lt;b&gt;%c4Name%&lt;/b&gt;&lt;/font&gt;&lt;div&gt;[%c4Type%]&lt;/div&gt;&lt;br&gt;&lt;div&gt;&lt;font style=&quot;font-size: 11px&quot;&gt;&lt;font color=&quot;#cccccc&quot;&gt;%c4Description%&lt;/font&gt;&lt;/div&gt;" id="HKrj_xFQJnSCGjJO6pi--7">
          <mxCell style="rounded=1;whiteSpace=wrap;html=1;labelBackgroundColor=none;fillColor=#8C8496;fontColor=#ffffff;align=center;arcSize=10;strokeColor=#736782;metaEdit=1;resizable=0;points=[[0.25,0,0],[0.5,0,0],[0.75,0,0],[1,0.25,0],[1,0.5,0],[1,0.75,0],[0.75,1,0],[0.5,1,0],[0.25,1,0],[0,0.75,0],[0,0.5,0],[0,0.25,0]];" vertex="1" parent="1">
            <mxGeometry x="280" y="760" width="240" height="120" as="geometry" />
          </mxCell>
        </object>
        <mxCell id="HKrj_xFQJnSCGjJO6pi--19" style="edgeStyle=orthogonalEdgeStyle;rounded=0;orthogonalLoop=1;jettySize=auto;html=1;exitX=0.5;exitY=1;exitDx=0;exitDy=0;exitPerimeter=0;entryX=0;entryY=0.5;entryDx=0;entryDy=0;entryPerimeter=0;" edge="1" parent="1" source="HKrj_xFQJnSCGjJO6pi--2" target="HKrj_xFQJnSCGjJO6pi--1">
          <mxGeometry relative="1" as="geometry" />
        </mxCell>
        <mxCell id="HKrj_xFQJnSCGjJO6pi--30" value="&lt;font style=&quot;font-size: 12px;&quot;&gt;&lt;font style=&quot;&quot;&gt;Предоставляет данные о себе,&amp;nbsp;&lt;/font&gt;&lt;/font&gt;&lt;div&gt;&lt;font style=&quot;font-size: 12px;&quot;&gt;&lt;span style=&quot;background-color: light-dark(#ffffff, var(--ge-dark-color, #121212)); color: light-dark(rgb(0, 0, 0), rgb(255, 255, 255));&quot;&gt;просматривает список программ,&amp;nbsp;&lt;/span&gt;&lt;/font&gt;&lt;/div&gt;&lt;div&gt;&lt;font style=&quot;font-size: 12px;&quot;&gt;&lt;span style=&quot;background-color: light-dark(#ffffff, var(--ge-dark-color, #121212)); color: light-dark(rgb(0, 0, 0), rgb(255, 255, 255));&quot;&gt;подает заявления на поступление&lt;/span&gt;&lt;/font&gt;&lt;/div&gt;" style="edgeLabel;html=1;align=center;verticalAlign=middle;resizable=0;points=[];" connectable="0" vertex="1" parent="HKrj_xFQJnSCGjJO6pi--19">
          <mxGeometry x="-0.4994" relative="1" as="geometry">
            <mxPoint y="37" as="offset" />
          </mxGeometry>
        </mxCell>
        <mxCell id="HKrj_xFQJnSCGjJO6pi--20" style="edgeStyle=orthogonalEdgeStyle;rounded=0;orthogonalLoop=1;jettySize=auto;html=1;exitX=0.5;exitY=1;exitDx=0;exitDy=0;exitPerimeter=0;entryX=0.25;entryY=0;entryDx=0;entryDy=0;entryPerimeter=0;" edge="1" parent="1" source="HKrj_xFQJnSCGjJO6pi--3" target="HKrj_xFQJnSCGjJO6pi--1">
          <mxGeometry relative="1" as="geometry" />
        </mxCell>
        <mxCell id="HKrj_xFQJnSCGjJO6pi--32" value="&lt;font style=&quot;font-size: 12px;&quot;&gt;&lt;font style=&quot;&quot;&gt;Просматривает всех абитуриентов,&amp;nbsp;&lt;/font&gt;&lt;/font&gt;&lt;div&gt;&lt;font style=&quot;font-size: 12px;&quot;&gt;&lt;span style=&quot;background-color: light-dark(#ffffff, var(--ge-dark-color, #121212)); color: light-dark(rgb(0, 0, 0), rgb(255, 255, 255));&quot;&gt;работает с документами абитуриента,&amp;nbsp;&lt;/span&gt;&lt;/font&gt;&lt;/div&gt;&lt;div&gt;&lt;font style=&quot;font-size: 12px;&quot;&gt;&lt;span style=&quot;background-color: light-dark(#ffffff, var(--ge-dark-color, #121212)); color: light-dark(rgb(0, 0, 0), rgb(255, 255, 255));&quot;&gt;н&lt;/span&gt;&lt;span style=&quot;background-color: light-dark(#ffffff, var(--ge-dark-color, #121212)); color: light-dark(rgb(0, 0, 0), rgb(255, 255, 255));&quot;&gt;а которого он назначен&lt;/span&gt;&lt;/font&gt;&lt;/div&gt;" style="edgeLabel;html=1;align=center;verticalAlign=middle;resizable=0;points=[];" connectable="0" vertex="1" parent="HKrj_xFQJnSCGjJO6pi--20">
          <mxGeometry x="-0.2506" y="5" relative="1" as="geometry">
            <mxPoint x="-14" y="-40" as="offset" />
          </mxGeometry>
        </mxCell>
        <mxCell id="HKrj_xFQJnSCGjJO6pi--21" style="edgeStyle=orthogonalEdgeStyle;rounded=0;orthogonalLoop=1;jettySize=auto;html=1;exitX=0.5;exitY=1;exitDx=0;exitDy=0;exitPerimeter=0;entryX=0.75;entryY=0;entryDx=0;entryDy=0;entryPerimeter=0;" edge="1" parent="1" source="HKrj_xFQJnSCGjJO6pi--4" target="HKrj_xFQJnSCGjJO6pi--1">
          <mxGeometry relative="1" as="geometry" />
        </mxCell>
        <mxCell id="HKrj_xFQJnSCGjJO6pi--33" value="&lt;font style=&quot;font-size: 12px;&quot;&gt;&lt;font style=&quot;&quot;&gt;Назначает менеджера,&amp;nbsp;&lt;/font&gt;&lt;/font&gt;&lt;div&gt;&lt;font style=&quot;font-size: 12px;&quot;&gt;&lt;span style=&quot;background-color: light-dark(#ffffff, var(--ge-dark-color, #121212)); color: light-dark(rgb(0, 0, 0), rgb(255, 255, 255));&quot;&gt;просматривает всех менеджеров,&amp;nbsp;&lt;/span&gt;&lt;/font&gt;&lt;/div&gt;&lt;div&gt;&lt;font style=&quot;font-size: 12px;&quot;&gt;&lt;span style=&quot;background-color: light-dark(#ffffff, var(--ge-dark-color, #121212)); color: light-dark(rgb(0, 0, 0), rgb(255, 255, 255));&quot;&gt;имеет функционал менеджера&lt;/span&gt;&lt;/font&gt;&lt;/div&gt;" style="edgeLabel;html=1;align=center;verticalAlign=middle;resizable=0;points=[];" connectable="0" vertex="1" parent="HKrj_xFQJnSCGjJO6pi--21">
          <mxGeometry x="-0.639" y="4" relative="1" as="geometry">
            <mxPoint as="offset" />
          </mxGeometry>
        </mxCell>
        <mxCell id="HKrj_xFQJnSCGjJO6pi--22" style="edgeStyle=orthogonalEdgeStyle;rounded=0;orthogonalLoop=1;jettySize=auto;html=1;exitX=0.5;exitY=1;exitDx=0;exitDy=0;exitPerimeter=0;entryX=1;entryY=0.5;entryDx=0;entryDy=0;entryPerimeter=0;" edge="1" parent="1" source="HKrj_xFQJnSCGjJO6pi--5" target="HKrj_xFQJnSCGjJO6pi--1">
          <mxGeometry relative="1" as="geometry" />
        </mxCell>
        <mxCell id="HKrj_xFQJnSCGjJO6pi--34" value="&lt;font style=&quot;font-size: 12px;&quot;&gt;&lt;font style=&quot;&quot;&gt;Импортирует справочники,&amp;nbsp;&lt;/font&gt;&lt;/font&gt;&lt;div&gt;&lt;font style=&quot;font-size: 12px;&quot;&gt;&lt;span style=&quot;background-color: light-dark(#ffffff, var(--ge-dark-color, #121212)); color: light-dark(rgb(0, 0, 0), rgb(255, 255, 255));&quot;&gt;создает менеджера любого уровня,&amp;nbsp;&lt;/span&gt;&lt;/font&gt;&lt;/div&gt;&lt;div&gt;&lt;font style=&quot;font-size: 12px;&quot;&gt;&lt;span style=&quot;background-color: light-dark(#ffffff, var(--ge-dark-color, #121212)); color: light-dark(rgb(0, 0, 0), rgb(255, 255, 255));&quot;&gt;редактирует данные менеджера,&lt;/span&gt;&lt;/font&gt;&lt;/div&gt;&lt;div&gt;&lt;font style=&quot;font-size: 12px;&quot;&gt;&lt;span style=&quot;background-color: light-dark(#ffffff, var(--ge-dark-color, #121212)); color: light-dark(rgb(0, 0, 0), rgb(255, 255, 255));&quot;&gt;удаляет менеджера&lt;/span&gt;&lt;/font&gt;&lt;/div&gt;" style="edgeLabel;html=1;align=center;verticalAlign=middle;resizable=0;points=[];" connectable="0" vertex="1" parent="HKrj_xFQJnSCGjJO6pi--22">
          <mxGeometry x="-0.7177" y="1" relative="1" as="geometry">
            <mxPoint x="-1" y="94" as="offset" />
          </mxGeometry>
        </mxCell>
        <mxCell id="HKrj_xFQJnSCGjJO6pi--25" style="edgeStyle=orthogonalEdgeStyle;rounded=0;orthogonalLoop=1;jettySize=auto;html=1;exitX=0.75;exitY=1;exitDx=0;exitDy=0;exitPerimeter=0;entryX=0;entryY=0.5;entryDx=0;entryDy=0;entryPerimeter=0;" edge="1" parent="1" source="HKrj_xFQJnSCGjJO6pi--1" target="HKrj_xFQJnSCGjJO6pi--6">
          <mxGeometry relative="1" as="geometry" />
        </mxCell>
        <mxCell id="HKrj_xFQJnSCGjJO6pi--35" value="&lt;font style=&quot;font-size: 12px;&quot;&gt;&lt;font style=&quot;&quot;&gt;Имортирует справочник,&amp;nbsp;&lt;/font&gt;&lt;/font&gt;&lt;div&gt;&lt;font style=&quot;font-size: 12px;&quot;&gt;&lt;span style=&quot;background-color: light-dark(#ffffff, var(--ge-dark-color, #121212)); color: light-dark(rgb(0, 0, 0), rgb(255, 255, 255));&quot;&gt;просматривает статус импорта&amp;nbsp;&lt;/span&gt;&lt;/font&gt;&lt;/div&gt;" style="edgeLabel;html=1;align=center;verticalAlign=middle;resizable=0;points=[];" connectable="0" vertex="1" parent="HKrj_xFQJnSCGjJO6pi--25">
          <mxGeometry x="-0.6127" y="4" relative="1" as="geometry">
            <mxPoint x="126" y="83" as="offset" />
          </mxGeometry>
        </mxCell>
        <mxCell id="HKrj_xFQJnSCGjJO6pi--26" style="edgeStyle=orthogonalEdgeStyle;rounded=0;orthogonalLoop=1;jettySize=auto;html=1;exitX=0.25;exitY=1;exitDx=0;exitDy=0;exitPerimeter=0;entryX=1;entryY=0.5;entryDx=0;entryDy=0;entryPerimeter=0;" edge="1" parent="1" source="HKrj_xFQJnSCGjJO6pi--1" target="HKrj_xFQJnSCGjJO6pi--7">
          <mxGeometry relative="1" as="geometry" />
        </mxCell>
        <mxCell id="HKrj_xFQJnSCGjJO6pi--36" value="&lt;font style=&quot;font-size: 12px;&quot;&gt;Отправляет письмо&amp;nbsp;&lt;/font&gt;" style="edgeLabel;html=1;align=center;verticalAlign=middle;resizable=0;points=[];" connectable="0" vertex="1" parent="HKrj_xFQJnSCGjJO6pi--26">
          <mxGeometry x="0.5956" y="2" relative="1" as="geometry">
            <mxPoint x="9" y="-2" as="offset" />
          </mxGeometry>
        </mxCell>
        <mxCell id="HKrj_xFQJnSCGjJO6pi--27" style="edgeStyle=orthogonalEdgeStyle;rounded=0;orthogonalLoop=1;jettySize=auto;html=1;exitX=0;exitY=0.25;exitDx=0;exitDy=0;exitPerimeter=0;entryX=0.5;entryY=0;entryDx=0;entryDy=0;entryPerimeter=0;" edge="1" parent="1" source="HKrj_xFQJnSCGjJO6pi--7" target="HKrj_xFQJnSCGjJO6pi--2">
          <mxGeometry relative="1" as="geometry">
            <Array as="points">
              <mxPoint x="260" y="790" />
              <mxPoint x="260" y="140" />
              <mxPoint x="380" y="140" />
            </Array>
          </mxGeometry>
        </mxCell>
        <mxCell id="HKrj_xFQJnSCGjJO6pi--37" value="&lt;font style=&quot;font-size: 12px;&quot;&gt;Отправляет письмо&lt;/font&gt;" style="edgeLabel;html=1;align=center;verticalAlign=middle;resizable=0;points=[];" connectable="0" vertex="1" parent="HKrj_xFQJnSCGjJO6pi--27">
          <mxGeometry x="-0.5951" y="-2" relative="1" as="geometry">
            <mxPoint x="58" y="-506" as="offset" />
          </mxGeometry>
        </mxCell>
        <mxCell id="HKrj_xFQJnSCGjJO6pi--28" style="edgeStyle=orthogonalEdgeStyle;rounded=0;orthogonalLoop=1;jettySize=auto;html=1;exitX=0;exitY=0.5;exitDx=0;exitDy=0;exitPerimeter=0;entryX=0.5;entryY=0;entryDx=0;entryDy=0;entryPerimeter=0;" edge="1" parent="1" source="HKrj_xFQJnSCGjJO6pi--7" target="HKrj_xFQJnSCGjJO6pi--3">
          <mxGeometry relative="1" as="geometry">
            <Array as="points">
              <mxPoint x="200" y="820" />
              <mxPoint x="200" y="80" />
              <mxPoint x="700" y="80" />
            </Array>
          </mxGeometry>
        </mxCell>
        <mxCell id="HKrj_xFQJnSCGjJO6pi--38" value="&lt;font style=&quot;font-size: 12px;&quot;&gt;Отправляет письмо&lt;/font&gt;" style="edgeLabel;html=1;align=center;verticalAlign=middle;resizable=0;points=[];" connectable="0" vertex="1" parent="HKrj_xFQJnSCGjJO6pi--28">
          <mxGeometry x="0.33" y="2" relative="1" as="geometry">
            <mxPoint x="9" y="2" as="offset" />
          </mxGeometry>
        </mxCell>
        <mxCell id="HKrj_xFQJnSCGjJO6pi--29" style="edgeStyle=orthogonalEdgeStyle;rounded=0;orthogonalLoop=1;jettySize=auto;html=1;exitX=0;exitY=0.75;exitDx=0;exitDy=0;exitPerimeter=0;entryX=0.5;entryY=0;entryDx=0;entryDy=0;entryPerimeter=0;" edge="1" parent="1" source="HKrj_xFQJnSCGjJO6pi--7" target="HKrj_xFQJnSCGjJO6pi--4">
          <mxGeometry relative="1" as="geometry">
            <Array as="points">
              <mxPoint x="160" y="850" />
              <mxPoint x="160" y="40" />
              <mxPoint x="1020" y="40" />
            </Array>
          </mxGeometry>
        </mxCell>
        <mxCell id="HKrj_xFQJnSCGjJO6pi--39" value="&lt;font style=&quot;font-size: 12px;&quot;&gt;Отправляет письмо&lt;/font&gt;" style="edgeLabel;html=1;align=center;verticalAlign=middle;resizable=0;points=[];" connectable="0" vertex="1" parent="HKrj_xFQJnSCGjJO6pi--29">
          <mxGeometry x="0.1245" y="4" relative="1" as="geometry">
            <mxPoint x="16" y="4" as="offset" />
          </mxGeometry>
        </mxCell>
        <object placeholders="1" c4Name="Система приемной комиссии" c4Type="SystemScopeBoundary" c4Application="System context" label="&lt;font style=&quot;font-size: 16px&quot;&gt;&lt;b&gt;&lt;div style=&quot;text-align: left&quot;&gt;%c4Name%&lt;/div&gt;&lt;/b&gt;&lt;/font&gt;&lt;div style=&quot;text-align: left&quot;&gt;[%c4Application%]&lt;/div&gt;" id="HKrj_xFQJnSCGjJO6pi--40">
          <mxCell style="rounded=1;fontSize=11;whiteSpace=wrap;html=1;dashed=1;arcSize=20;fillColor=none;strokeColor=#666666;fontColor=#333333;labelBackgroundColor=none;align=left;verticalAlign=bottom;labelBorderColor=none;spacingTop=0;spacing=10;dashPattern=8 4;metaEdit=1;rotatable=0;perimeter=rectanglePerimeter;noLabel=0;labelPadding=0;allowArrows=0;connectable=0;expand=0;recursiveResize=0;editable=1;pointerEvents=0;absoluteArcSize=1;points=[[0.25,0,0],[0.5,0,0],[0.75,0,0],[1,0.25,0],[1,0.5,0],[1,0.75,0],[0.75,1,0],[0.5,1,0],[0.25,1,0],[0,0.75,0],[0,0.5,0],[0,0.25,0]];" vertex="1" parent="1">
            <mxGeometry x="80" y="20" width="1470" height="910" as="geometry" />
          </mxCell>
        </object>
      </root>
    </mxGraphModel>
  </diagram>
</mxfile>
